<svg xmlns="http://www.w3.org/2000/svg" xmlns:xlink="http://www.w3.org/1999/xlink" id="Layer_1" x="0" y="0" version="1.1" viewBox="0 0 473.7 473.7" xml:space="preserve" style="enable-background:new 0 0 473.7 473.7"><style type="text/css">.st0{fill:#e5e5e5}.st1{fill:#fff}</style><circle cx="236.8" cy="236.8" r="236.8" class="st0"/><path d="M338.6,193.9c-25.9,0-51.8,0-77.7,0c-4.2,0-8,0.5-11.5,1.5c0-13.4,0-26.8,0-40.2c0-24.7-30.5-37.4-48-19.9	c-27,27-54,54-81,81c-10.8,10.8-10.5,28.9,0.2,39.7c27,27,54,54,81,81c9.4,9.4,20.8,9.9,30.1,5.6c9.8-3.3,17.7-11.8,17.7-25.3	c0-13.5,0-27,0-40.5c3.4,0.8,7,1.3,10.9,1.3c25.9,0,51.8,0,77.7,0C392.3,278.1,392.8,193.9,338.6,193.9z" class="st1"/></svg>