<svg xmlns="http://www.w3.org/2000/svg" xmlns:xlink="http://www.w3.org/1999/xlink" style="enable-background:new 0 0 256 256" id="Layer_1" width="512" height="512" x="0" y="0" version="1.1" viewBox="0 0 256 256" xml:space="preserve"><style type="text/css">.st0{fill:#382b73}.st1{fill:#473080}.st2{fill:#e7ad27}.st3{fill:#fede3a}.st4{fill:#d1d3d4}.st5{fill:#fff}.st6{fill:#e6e7e8}.st7{fill:#1caee4}.st8{fill:#009add}.st9{fill:#27c1e6}.st10{fill:#bcbec0}.st11{fill:#fff335}.st12{fill:#ef5a9d}.st13{fill:#f06ea9}</style><switch><g><g><g><circle cx="128" cy="128" r="119.4" class="st0"/><circle cx="128" cy="128" r="103.299" class="st1"/></g><g><path d="M215.356,116.286c-2.766-2.766-7.251-2.766-10.017,0l-2.318,2.318l-3.985,3.985l10.017,10.017l6.303-6.303 C218.123,123.538,218.123,119.053,215.356,116.286z" class="st0"/><path d="M199.036,122.59l-21.702,21.702V74.417c0-3.314-2.686-6-6-6h-23.49c-0.861-0.961-2.026-1.643-3.343-1.894 V65.75c0-1.105-0.895-2-2-2h-29c-1.104,0-2,0.895-2,2v0.773c-1.317,0.251-2.482,0.933-3.343,1.894h-23.49c-3.314,0-6,2.686-6,6 V200.25c0,3.314,2.686,6,6,6h86.667c3.314,0,6-2.686,6-6v-35.923l31.72-31.72L199.036,122.59z" class="st0"/></g><g><g><path d="M171.333,199.25H84.667c-3.314,0-6-2.686-6-6V71.417c0-3.314,2.686-6,6-6h86.667c3.314,0,6,2.686,6,6 V193.25C177.333,196.564,174.647,199.25,171.333,199.25z" class="st2"/><path d="M171.333,195.25H84.667c-3.314,0-6-2.686-6-6V67.417c0-3.314,2.686-6,6-6h86.667c3.314,0,6,2.686,6,6 V189.25C177.333,192.564,174.647,195.25,171.333,195.25z" class="st3"/><path d="M165.667,189.5H90.333c-2.209,0-4-1.791-4-4V75.167c0-2.209,1.791-4,4-4h75.333c2.209,0,4,1.791,4,4V185.5 C169.667,187.709,167.876,189.5,165.667,189.5z" class="st4"/><path d="M165.667,187.5H90.333c-2.209,0-4-1.791-4-4V73.167c0-2.209,1.791-4,4-4h75.333c2.209,0,4,1.791,4,4V183.5 C169.667,185.709,167.876,187.5,165.667,187.5z" class="st5"/><path d="M145.375,69.167v3.667c0,1.103-0.897,2-2,2h-30.75c-1.103,0-2-0.897-2-2v-3.667h-4v3.667 c0,3.309,2.691,6,6,6h30.75c3.309,0,6-2.691,6-6v-3.667H145.375z" class="st6"/><g><path d="M143.375,76.833h-30.75c-3.309,0-6-2.691-6-6v-5.416c0-3.309,2.691-6,6-6h30.75c3.309,0,6,2.691,6,6 v5.416C149.375,74.142,146.684,76.833,143.375,76.833z M112.625,63.417c-1.103,0-2,0.897-2,2v5.416c0,1.103,0.897,2,2,2h30.75 c1.103,0,2-0.897,2-2v-5.416c0-1.103-0.897-2-2-2H112.625z" class="st7"/></g><path d="M143.375,61.417h-30.75c-2.209,0-4,1.791-4,4v5.417c0,2.209,1.791,4,4,4h30.75c2.209,0,4-1.791,4-4v-5.417 C147.375,63.208,145.584,61.417,143.375,61.417z M145.375,70.833c0,1.103-0.897,2-2,2h-30.75c-1.103,0-2-0.897-2-2v-5.416 c0-1.103,0.897-2,2-2h30.75c1.103,0,2,0.897,2,2V70.833z" class="st8"/><path d="M142.5,66.083h-29c-1.104,0-2-0.895-2-2V58.75c0-1.105,0.896-2,2-2h29c1.105,0,2,0.895,2,2v5.333 C144.5,65.188,143.605,66.083,142.5,66.083z" class="st7"/><path d="M142.5,56.75h-29c-1.104,0-2,0.895-2,2v1.458c0-1.104,0.896-2,2-2h29c1.105,0,2,0.896,2,2V58.75 C144.5,57.645,143.605,56.75,142.5,56.75z" class="st9"/><path d="M142.5,62.146h-29c-1.104,0-2-0.895-2-2v3.937c0,1.105,0.896,2,2,2h29c1.105,0,2-0.895,2-2v-3.937 C144.5,61.25,143.605,62.146,142.5,62.146z" class="st8"/><g><path d="M158.12,119.167H97.88c-1.104,0-2-0.896-2-2V94.435c0-1.105,0.896-2,2-2h60.241c1.105,0,2,0.895,2,2 v22.732C160.12,118.271,159.225,119.167,158.12,119.167z" class="st6"/><g><path d="M118.87,87.863H97.82c-1.072,0-1.941-0.869-1.941-1.941l0,0c0-1.072,0.869-1.941,1.941-1.941h21.049 c1.072,0,1.941,0.869,1.941,1.941l0,0C120.811,86.994,119.942,87.863,118.87,87.863z" class="st4"/></g><g><path d="M137.309,87.863h-10.558c-1.072,0-1.941-0.869-1.941-1.941l0,0c0-1.072,0.869-1.941,1.941-1.941h10.558 c1.072,0,1.941,0.869,1.941,1.941l0,0C139.25,86.994,138.381,87.863,137.309,87.863z" class="st4"/></g><path d="M132.393,100.294h-29.75c-1.072,0-1.941-0.869-1.941-1.941l0,0c0-1.072,0.869-1.941,1.941-1.941h29.75 c1.072,0,1.941,0.869,1.941,1.941l0,0C134.333,99.425,133.464,100.294,132.393,100.294z" class="st10"/><path d="M122.87,114.527h-20.227c-1.072,0-1.941-0.869-1.941-1.941l0,0c0-1.072,0.869-1.941,1.941-1.941h20.227 c1.072,0,1.941,0.869,1.941,1.941l0,0C124.811,113.658,123.942,114.527,122.87,114.527z" class="st10"/><path d="M151.997,100.294h-11.722c-1.072,0-1.941-0.869-1.941-1.941l0,0c0-1.072,0.869-1.941,1.941-1.941h11.722 c1.072,0,1.941,0.869,1.941,1.941l0,0C153.938,99.425,153.068,100.294,151.997,100.294z" class="st10"/><g><path d="M146.247,107.41h-43.654c-1.072,0-1.941-0.869-1.941-1.941l0,0c0-1.072,0.869-1.941,1.941-1.941h43.654 c1.072,0,1.941,0.869,1.941,1.941l0,0C148.188,106.541,147.318,107.41,146.247,107.41z" class="st10"/></g></g><g><path d="M158.12,177H97.88c-1.104,0-2-0.895-2-2v-22.732c0-1.104,0.896-2,2-2h60.241c1.105,0,2,0.896,2,2V175 C160.12,176.105,159.225,177,158.12,177z" class="st6"/><g><path d="M134.684,145.696H97.82c-1.072,0-1.941-0.869-1.941-1.941l0,0c0-1.072,0.869-1.941,1.941-1.941h36.864 c1.072,0,1.941,0.869,1.941,1.941l0,0C136.625,144.827,135.756,145.696,134.684,145.696z" class="st4"/></g><g><path d="M150.309,145.696h-7.743c-1.072,0-1.941-0.869-1.941-1.941v0c0-1.072,0.869-1.941,1.941-1.941h7.743 c1.072,0,1.941,0.869,1.941,1.941v0C152.25,144.827,151.381,145.696,150.309,145.696z" class="st4"/></g><path d="M132.393,158.458h-29.75c-1.072,0-1.941-0.869-1.941-1.941l0,0c0-1.072,0.869-1.941,1.941-1.941h29.75 c1.072,0,1.941,0.869,1.941,1.941l0,0C134.333,157.589,133.464,158.458,132.393,158.458z" class="st10"/><path d="M122.87,172.691h-20.227c-1.072,0-1.941-0.869-1.941-1.941l0,0c0-1.072,0.869-1.941,1.941-1.941h20.227 c1.072,0,1.941,0.869,1.941,1.941l0,0C124.811,171.822,123.942,172.691,122.87,172.691z" class="st10"/><path d="M151.997,158.458h-11.722c-1.072,0-1.941-0.869-1.941-1.941l0,0c0-1.072,0.869-1.941,1.941-1.941h11.722 c1.072,0,1.941,0.869,1.941,1.941l0,0C153.938,157.589,153.068,158.458,151.997,158.458z" class="st10"/><g><path d="M146.247,165.575h-43.654c-1.072,0-1.941-0.869-1.941-1.941l0,0c0-1.072,0.869-1.941,1.941-1.941 h43.654c1.072,0,1.941,0.869,1.941,1.941l0,0C148.188,164.706,147.318,165.575,146.247,165.575z" class="st10"/></g></g><rect width="83.333" height="2.833" x="86.333" y="130.333" class="st6"/></g><g><polygon points="169.667 149.959 169.667 169.993 177.333 162.327 177.333 142.292" class="st2"/><path d="M169.667,149.959l-16.654,16.654l-2.317,8.194l-1.145,4.05c-0.106,0.376,0.014,0.737,0.254,0.978 c0.001,0,0.001,0.001,0.002,0.002c0.143,0.143,0.328,0.243,0.534,0.279c0.005,0.001,0.01,0.002,0.015,0.002 c0.01,0.001,0.02,0.003,0.03,0.004c0.016,0.002,0.033,0.004,0.049,0.005c0.004,0,0.008,0.001,0.012,0.001 c0.017,0.001,0.034,0.002,0.052,0.002h0.014c0.089,0,0.18-0.013,0.273-0.039l12.245-3.462l6.636-6.636V149.959z" class="st10"/><path d="M150.357,180.118c-0.005-0.001-0.01-0.002-0.015-0.002C150.347,180.116,150.352,180.117,150.357,180.118z" class="st2"/><path d="M150.357,180.118c0.01,0.002,0.02,0.003,0.03,0.004c0,0,0,0,0,0 C150.377,180.121,150.367,180.119,150.357,180.118C150.357,180.118,150.357,180.118,150.357,180.118z" class="st2"/><path d="M150.387,180.122c0.016,0.002,0.033,0.004,0.049,0.005C150.42,180.126,150.403,180.124,150.387,180.122z" class="st2"/><path d="M150.325,180.113c0.005,0.001,0.011,0.002,0.016,0.003h0C150.336,180.115,150.331,180.114,150.325,180.113 z" class="st2"/></g><g><rect width="14.167" height="5.636" x="198.954" y="115.788" class="st3" transform="matrix(0.7071 0.7071 -0.7071 0.7071 144.2138 -110.9513)"/><rect width="6.333" height="5.636" x="202.87" y="115.788" class="st11" transform="matrix(0.7071 0.7071 -0.7071 0.7071 144.2138 -110.9513)"/><path d="M215.356,109.286L215.356,109.286c-2.766-2.766-7.251-2.766-10.017,0l-2.318,2.318l10.017,10.017 l2.318-2.318C218.122,116.538,218.122,112.053,215.356,109.286z" class="st7"/><path d="M215.356,109.286L215.356,109.286c-1.28-1.28-3.356-1.28-4.636,0l-5.009,5.009l4.636,4.636l5.009-5.009 C216.637,112.642,216.637,110.567,215.356,109.286z" class="st9"/><path d="M163.031,171.63l-10.017-10.017l-3.462,12.245c-0.213,0.753,0.482,1.447,1.234,1.234L163.031,171.63z" class="st5"/><g><path d="M150.008,174.993c0.221,0.131,0.495,0.178,0.777,0.099C150.504,175.171,150.23,175.123,150.008,174.993z" class="st12"/><path d="M149.65,174.634c-0.087-0.147-0.137-0.318-0.137-0.499C149.513,174.316,149.563,174.487,149.65,174.634z" class="st12"/><rect width="65.085" height="14.167" x="148.49" y="136.526" class="st12" transform="matrix(0.7071 -0.7071 0.7071 0.7071 -48.5241 170.0717)"/></g><rect width="65.085" height="6.556" x="148.49" y="140.332" class="st13" transform="matrix(0.7071 -0.7071 0.7071 0.7071 -48.5241 170.0717)"/><path d="M150.697,169.807l-1.145,4.05c-0.213,0.753,0.482,1.447,1.234,1.234l4.05-1.145L150.697,169.807z" class="st12"/></g></g></g></g></switch></svg>