<svg xmlns="http://www.w3.org/2000/svg" xmlns:xlink="http://www.w3.org/1999/xlink" id="Capa_1" x="0" y="0" version="1.1" viewBox="0 0 512 512" xml:space="preserve" style="enable-background:new 0 0 512 512"><circle style="fill:#ffc855" cx="256" cy="256" r="256"/><path style="fill:#f29f42" d="M512,256c0-10.605-0.657-21.057-1.91-31.324L402.802,117.388l-293.188,286.64l104.55,104.55	C227.78,510.816,241.751,512,256,512C397.385,512,512,397.385,512,256z"/><polygon style="fill:#dce6d3" points="432.423 147.009 369.491 84.077 346.156 107.411 362.243 123.498 286.936 198.805 317.695 229.564 393.002 154.257 409.089 170.344"/><polygon style="fill:#98b4b6" points="400.124 114.71 301.482 213.351 317.695 229.564 393.002 154.257 409.089 170.344 432.423 147.009"/><rect style="fill:#fff" width="16" height="134.999" x="150.765" y="290.224" transform="matrix(-0.7071 -0.7071 0.7071 -0.7071 18.081 722.9357)"/><rect style="fill:#e0e0e0" width="9.179" height="134.999" x="156.599" y="292.646" transform="matrix(0.7071 0.7071 -0.7071 0.7071 301.8719 -8.4931)"/><rect style="fill:#dce6d3" width="55.499" height="31.5" x="183.88" y="289.117" transform="matrix(-0.7071 -0.7071 0.7071 -0.7071 145.7014 670.0858)"/><rect style="fill:#98b4b6" width="28.928" height="31.5" x="206.57" y="298.514" transform="matrix(0.7071 0.7071 -0.7071 0.7071 286.9574 -64.2491)"/><rect style="fill:#fff" width="105.999" height="177.998" x="223.145" y="151.348" transform="matrix(-0.7071 -0.7071 0.7071 -0.7071 301.4565 605.5616)"/><rect style="fill:#e0e0e0" width="54.179" height="177.998" x="267.386" y="169.676" transform="matrix(0.7071 0.7071 -0.7071 0.7071 269.1606 -132.4618)"/><rect style="fill:#7ae5fe" width="84.689" height="66.109" x="201.605" y="239.502" transform="matrix(-0.7071 -0.7071 0.7071 -0.7071 223.7215 637.7827)"/><rect style="fill:#00bed2" width="43.522" height="66.109" x="236.732" y="254.05" transform="matrix(0.7071 0.7071 -0.7071 0.7071 278.7247 -98.691)"/></svg>