<svg xmlns="http://www.w3.org/2000/svg" xmlns:xlink="http://www.w3.org/1999/xlink" id="Capa_1" x="0" y="0" version="1.1" viewBox="0 0 512 512" xml:space="preserve" style="enable-background:new 0 0 512 512"><circle style="fill:#80d3f9" cx="256" cy="256" r="256"/><path style="fill:#00affe" d="M512,256c0-18.163-1.904-35.878-5.501-52.971L452.74,149.27L59,216.27l128.421,128.421L92,398.27	l107.45,107.45c18.194,4.103,37.117,6.28,56.55,6.28C397.385,512,512,397.385,512,256z"/><rect style="fill:#c75e0b" width="328" height="208" x="92" y="190.27"/><g><rect style="fill:#a34a28" width="164.05" height="208" x="255.95" y="190.27"/><rect style="fill:#a34a28" width="394" height="67" x="59" y="149.27"/></g><rect style="fill:#772e18" width="197.05" height="67" x="255.95" y="149.27"/><circle style="fill:#fff" cx="256" cy="265.52" r="17.489"/><path style="fill:#ced7db" d="M256,248.034c-0.016,0-0.032,0.002-0.048,0.002v34.972c0.016,0,0.032,0.002,0.048,0.002	c9.659,0,17.489-7.83,17.489-17.489C273.489,255.864,265.659,248.034,256,248.034z"/><rect style="fill:#fff" width="23.318" height="66.5" x="244.34" y="295.5"/><rect style="fill:#ced7db" width="11.707" height="66.5" x="255.95" y="295.5"/></svg>