<svg xmlns="http://www.w3.org/2000/svg" xmlns:xlink="http://www.w3.org/1999/xlink" id="Layer_1" x="0" y="0" version="1.1" viewBox="0 0 18 18" xml:space="preserve" style="enable-background:new 0 0 18 18"><style type="text/css">.st0{fill:none}.st1{fill:#afafaf}</style><g><path d="M-1.8-1.8h21.6v21.6H-1.8V-1.8z" class="st0"/><g><path d="M16.1,1.9v3.4h-5.2V1.9H16.1 M7.1,1.9v7H1.9v-7H7.1 M16.1,9.1v7h-5.2v-7H16.1 M7.1,12.7v3.4H1.9v-3.4H7.1 M17.1,0.9H9.9v5.4h7.2V0.9L17.1,0.9z M8.1,0.9H0.9v9h7.2V0.9L8.1,0.9z M17.1,8.1H9.9v9h7.2V8.1L17.1,8.1z M8.1,11.7H0.9v5.4h7.2 V11.7L8.1,11.7z" class="st1"/></g></g></svg>