<svg xmlns="http://www.w3.org/2000/svg" xmlns:xlink="http://www.w3.org/1999/xlink" id="Layer_1" width="512" height="512" x="0" y="0" enable-background="new 0 0 100 100" version="1.1" viewBox="0 0 100 100" xml:space="preserve"><g><circle cx="50" cy="50" r="48" fill="#EA8953"/><path d="M98,50c0-0.2511597-0.0150757-0.4987183-0.0189209-0.7489624L71.2299805,22.5h-42.5v6.9500122h0.0400391 L22.5,37.9799805v3.4400024c0,0.9799805,0.4199829,1.8599854,1.0800171,2.4899902l2.3599854,2.3599854v24.8600464L22.5,75.2399902 V77.5l19.894043,19.894043C44.8719482,97.7886963,47.4109497,98,50,98C76.5097046,98,98,76.5095825,98,50z" opacity=".1"/><g><g><rect width="55" height="2.257" x="22.5" y="75.243" fill="#3A556A"/><polygon fill="#64798A" points="70.96 67.422 29.04 67.422 22.5 75.243 77.5 75.243"/></g><rect width="48.125" height="37.587" x="25.938" y="35.813" fill="#FCD462"/><rect width="15.386" height="26.411" x="29.375" y="46.989" fill="#FFF"/><rect width="13.253" height="25.211" x="30.441" y="48.189" fill="#27A2DB"/><rect width="22.396" height="15.264" x="48.294" y="48.789" fill="#FFF"/><g><rect width="9.698" height="6.132" x="59.991" y="49.788" fill="#27A2DB"/><rect width="9.698" height="6.132" x="49.293" y="49.788" fill="#27A2DB"/><rect width="9.698" height="6.132" x="59.991" y="56.921" fill="#27A2DB"/><rect width="9.698" height="6.132" x="49.293" y="56.921" fill="#27A2DB"/></g><rect width="48.125" height="16.071" x="25.938" y="35.813" opacity=".15"/><g><path fill="#D5D6DB" d="M22.5000381,37.9794426v3.4374962c0,1.8984833,1.5390129,3.4374962,3.4374619,3.4374962 c1.8985157,0,3.4375286-1.5390129,3.4375286-3.4374962v-3.4374962H22.5000381z"/><path fill="#CE412D" d="M29.3750286,37.9794426v3.4374962c0,1.8984833,1.5390129,3.4374962,3.4374599,3.4374962 c1.8985176,0,3.4375305-1.5390129,3.4375305-3.4374962v-3.4374962H29.3750286z"/><path fill="#D5D6DB" d="M36.2500191,37.9794426v3.4374962c0,1.8984833,1.5390129,3.4374962,3.4374619,3.4374962 c1.8985176,0,3.4375305-1.5390129,3.4375305-3.4374962v-3.4374962H36.2500191z"/><path fill="#CE412D" d="M43.1250114,37.9794426v3.4374962c0,1.8984833,1.5390129,3.4374962,3.437458,3.4374962 C48.4609871,44.854435,50,43.3154221,50,41.4169388v-3.4374962H43.1250114z"/><path fill="#D5D6DB" d="M50,37.9794426v3.4374962c0,1.8984833,1.5390129,3.4374962,3.4374619,3.4374962 c1.8985176,0,3.4375305-1.5390129,3.4375305-3.4374962v-3.4374962H50z"/><path fill="#CE412D" d="M56.8749924,37.9794426v3.4374962c0,1.8984833,1.5390129,3.4374962,3.437458,3.4374962 c1.8985176,0,3.4375305-1.5390129,3.4375305-3.4374962v-3.4374962H56.8749924z"/><path fill="#D5D6DB" d="M63.7499809,37.9794426v3.4374962c0,1.8984833,1.5390129,3.4374962,3.4374657,3.4374962 c1.8985138,0,3.4375229-1.5390129,3.4375229-3.4374962v-3.4374962H63.7499809z"/><path fill="#CE412D" d="M70.6249695,37.9794426v3.4374962c0,1.8984833,1.5390167,3.4374962,3.4374619,3.4374962 c1.8985214,0,3.4375305-1.5390129,3.4375305-3.4374962v-3.4374962H70.6249695z"/><polygon fill="#EBF0F3" points="34.075 29.453 28.767 29.453 22.5 37.979 29.375 37.979"/><polygon fill="#E56353" points="39.384 29.453 34.075 29.453 29.375 37.979 36.25 37.979"/><polygon fill="#EBF0F3" points="44.692 29.453 39.384 29.453 36.25 37.979 43.125 37.979"/><polygon fill="#E56353" points="50 29.453 44.692 29.453 43.125 37.979 50 37.979"/><polygon fill="#EBF0F3" points="55.308 29.453 50 29.453 50 37.979 56.875 37.979"/><polygon fill="#E56353" points="60.616 29.453 55.308 29.453 56.875 37.979 63.75 37.979"/><polygon fill="#EBF0F3" points="65.925 29.453 60.616 29.453 63.75 37.979 70.625 37.979"/><polygon fill="#E56353" points="71.233 29.453 65.925 29.453 70.625 37.979 77.5 37.979"/></g><rect width="42.499" height="6.953" x="28.733" y="22.5" fill="#3A556A"/><rect width="4.953" height="40.499" x="47.507" y="5.727" fill="#64798A" transform="matrix(-1.836970e-16 1 -1 -1.836970e-16 75.9595718 -24.0071907)"/></g></g></svg>