<svg xmlns="http://www.w3.org/2000/svg" xmlns:xlink="http://www.w3.org/1999/xlink" id="Layer_1" x="0" y="0" version="1.1" viewBox="0 0 18 18" xml:space="preserve" style="enable-background:new 0 0 18 18"><style type="text/css">.st0{display:none}.st1{display:inline;fill:none}.st2{fill:#3a83ff}.st2,.st3{display:inline}.st4{fill:#afafaf}.st5{fill:#3a83ff}</style><g class="st0"><path d="M-1.8-1.8h21.6v21.6H-1.8V-1.8z" class="st1"/><path d="M0.9,9.9h7.2v-9H0.9V9.9z M0.9,17.1h7.2v-5.4H0.9V17.1z M9.9,17.1h7.2v-9H9.9V17.1z M9.9,0.9v5.4h7.2V0.9H9.9z" class="st2"/></g><g id="Layer_2_1_" class="st0"><g class="st3"><path d="M16.1,1.8v2.1h-2.2V1.8H16.1 M10,1.8v2.1H7.9V1.8H10 M4,1.8v2.1H1.9V1.8H4 M16.1,7.8v2.1h-2.2V7.8H16.1 M10,7.8v2.1H7.9V7.8H10 M4,7.8v2.1H1.9V7.8H4 M16.1,13.9V16h-2.2v-2.1H16.1 M10,13.9V16H7.9v-2.1H10 M4,13.9V16H1.9v-2.1H4 M17.1,0.8h-4.2v4.1h4.2V0.8L17.1,0.8z M11,0.8H6.9v4.1H11V0.8L11,0.8z M5,0.8H0.9v4.1H5V0.8L5,0.8z M17.1,6.8h-4.2v4.1h4.2V6.8 L17.1,6.8z M11,6.8H6.9v4.1H11V6.8L11,6.8z M5,6.8H0.9v4.1H5V6.8L5,6.8z M12.9,12.8V17h4.2v-4.1L12.9,12.8L12.9,12.8L12.9,12.8z M6.9,12.8V17H11v-4.1L6.9,12.8L6.9,12.8L6.9,12.8z M0.9,12.8V17H5v-4.1L0.9,12.8L0.9,12.8L0.9,12.8z" class="st4"/></g></g><g id="Layer_2_2_"><path d="M0.9,0.8v4.1H5V0.8H0.9z M6.9,0.8v4.1H11V0.8H6.9z M12.9,0.8v4.1h4.2V0.8H12.9z M0.9,6.8v4.1H5V6.8H0.9z M6.9,6.8v4.1H11V6.8H6.9z M12.9,6.8v4.1h4.2V6.8H12.9z M0.9,12.8V17H5v-4.1L0.9,12.8L0.9,12.8z M6.9,12.8V17H11v-4.1L6.9,12.8 L6.9,12.8z M12.9,12.8V17h4.2v-4.1L12.9,12.8L12.9,12.8z" class="st5"/></g></svg>