<svg xmlns="http://www.w3.org/2000/svg" xmlns:xlink="http://www.w3.org/1999/xlink" id="Layer_1" x="0" y="0" version="1.1" viewBox="0 0 22 14" xml:space="preserve" style="enable-background:new 0 0 22 14"><style type="text/css">.st0{fill:none}.st1{fill:#3a83ff;stroke:#3a83ff;stroke-miterlimit:10}</style><g><path d="M2.1-2.4h18.8v18.8H2.1V-2.4z" class="st0"/><path d="M14.6,6.2c1.3,0,2.3-1.1,2.3-2.4s-1-2.4-2.3-2.4s-2.4,1.1-2.4,2.4S13.3,6.2,14.6,6.2z M7.4,6.2 c1.3,0,2.3-1.1,2.3-2.4s-1-2.4-2.3-2.4S5,2.6,5,3.9S6.1,6.2,7.4,6.2z M7.4,7.8c-1.8,0-5.5,0.9-5.5,2.7v2h11v-2 C12.9,8.7,9.2,7.8,7.4,7.8z M14.6,7.8c-0.2,0-0.5,0-0.8,0c0.9,0.7,1.5,1.5,1.5,2.7v2H20v-2C20.1,8.7,16.5,7.8,14.6,7.8z" class="st1"/></g></svg>