<svg xmlns="http://www.w3.org/2000/svg" xmlns:xlink="http://www.w3.org/1999/xlink" id="Capa_1" x="0" y="0" version="1.1" viewBox="0 0 512 512" xml:space="preserve" style="enable-background:new 0 0 512 512"><style type="text/css">.st0{fill:#f6f9f9}.st1{fill:#e7ecf1}.st2{fill:#61a2f9}.st3{fill:#5490f9}.st4{fill:#dae4ea}.st5{fill:#da4a54}</style><g><path d="M482.5,102.4L283.9,86.3L29.5,102.4v397c0,6.9,5.6,12.5,12.5,12.5h428c6.9,0,12.5-5.6,12.5-12.5L482.5,102.4z" class="st0"/><path d="M482.5,102.4l-41.2-20.6v314c0,52.8-42.8,95.5-95.5,95.5H29.5v8.1c0,6.9,5.6,12.5,12.5,12.5h428 c6.9,0,12.5-5.6,12.5-12.5V102.4z" class="st1"/><path d="M470,29.2H42c-6.9,0-12.5,5.6-12.5,12.5v60.7h453.1V41.8C482.5,34.8,476.9,29.2,470,29.2z" class="st2"/><path d="M470,29.2h-28.7v73.2h41.2V41.8C482.5,34.8,476.9,29.2,470,29.2z" class="st3"/><g><path d="M93.5,69h-7C79.6,69,74,63.4,74,56.5v-44C74,5.6,79.6,0,86.5,0h7c6.9,0,12.5,5.6,12.5,12.5v44 C106,63.4,100.4,69,93.5,69z" class="st4"/><path d="M176.5,69h-7c-6.9,0-12.5-5.6-12.5-12.5v-44C157,5.6,162.6,0,169.5,0h7c6.9,0,12.5,5.6,12.5,12.5v44 C189,63.4,183.4,69,176.5,69z" class="st4"/><path d="M259.5,69h-7c-6.9,0-12.5-5.6-12.5-12.5v-44C240,5.6,245.6,0,252.5,0h7c6.9,0,12.5,5.6,12.5,12.5v44 C272,63.4,266.4,69,259.5,69z" class="st4"/><path d="M342.5,69h-7c-6.9,0-12.5-5.6-12.5-12.5v-44C323,5.6,328.6,0,335.5,0h7c6.9,0,12.5,5.6,12.5,12.5v44 C355,63.4,349.4,69,342.5,69z" class="st4"/><path d="M425.5,69h-7c-6.9,0-12.5-5.6-12.5-12.5v-44C406,5.6,411.6,0,418.5,0h7c6.9,0,12.5,5.6,12.5,12.5v44 C438,63.4,432.4,69,425.5,69z" class="st4"/></g><path d="M318.4,306.7l62.7-62.7c2.4-2.4,2.4-6.2,0-8.6L327.7,182c-2.4-2.4-6.2-2.4-8.6,0l-62.7,62.7 c-0.2,0.2-0.6,0.2-0.8,0L192.9,182c-2.4-2.4-6.2-2.4-8.6,0l-53.4,53.4c-2.4,2.4-2.4,6.2,0,8.6l62.7,62.7c0.2,0.2,0.2,0.6,0,0.8 l-62.7,62.7c-2.4,2.4-2.4,6.2,0,8.6l53.4,53.4c2.4,2.4,6.2,2.4,8.6,0l62.7-62.7c0.2-0.2,0.6-0.2,0.8,0l62.7,62.7 c2.4,2.4,6.2,2.4,8.6,0l53.4-53.4c2.4-2.4,2.4-6.2,0-8.6l-62.7-62.7C318.2,307.2,318.2,306.9,318.4,306.7z" class="st5"/></g></svg>