<svg xmlns="http://www.w3.org/2000/svg" id="Layer_1" width="475" height="432.77" data-name="Layer 1" viewBox="0 0 475 432.77"><defs><style>.cls-1{fill:#2f6cd4}.cls-2,.cls-7{fill:#09152a}.cls-3{fill:#132b55}.cls-4{fill:#d4d4f4}.cls-5{fill:#003677;opacity:.4}.cls-6{fill:#92beff;opacity:.6}.cls-7{opacity:.9}.cls-8{opacity:.8}.cls-9{fill:#020212}.cls-10{fill:#3a83ff}.cls-11{fill:#fff}.cls-12{fill:#a6c7ff}.cls-13{fill:#d2e3ff}.cls-14,.cls-15{opacity:.79}</style></defs><title>Artboard 1</title><path d="M105,146.65A45,45,0,0,1,77.7,188a174.17,174.17,0,0,1,25.83-52.82A45,45,0,0,1,105,146.65Z" class="cls-1"/><path d="M149.38,237.3V383.45A174.85,174.85,0,0,1,70.67,237.3Z" class="cls-2"/><path d="M149.38,91.16V237.3H70.67a176.22,176.22,0,0,1,3-32.21,60,60,0,0,0,40.85-83.6A175.76,175.76,0,0,1,149.38,91.16Z" class="cls-1"/><path d="M330.29,84.08V237.3H149.38V91.16a174,174,0,0,1,37.36-18.68q4.75-1.71,9.64-3.13A175.46,175.46,0,0,1,326.47,82C327.76,82.7,329,83.38,330.29,84.08Z" class="cls-3"/><path d="M420.67,237.3H330.29V84.08c2.27,1.26,4.51,2.56,6.72,3.93A174.87,174.87,0,0,1,420.67,237.3Z" class="cls-2"/><path d="M420.67,237.3a175,175,0,0,1-90.38,153.22V237.3Z" class="cls-1"/><path d="M330.29,237.3V390.52a173.9,173.9,0,0,1-72.61,21.37q-6,.41-12,.41a174.2,174.2,0,0,1-96.29-28.85V237.3Z" class="cls-3"/><path d="M60,86.65A60,60,0,1,0,73.63,205.09q1.62-8.68,4.07-17.06a45,45,0,1,1,25.83-52.82,172.28,172.28,0,0,1,11-13.72A60,60,0,0,0,60,86.65Z" class="cls-4"/><path d="M120,146.65a60,60,0,0,1-46.37,58.44q1.62-8.68,4.07-17.06a45,45,0,0,0,25.83-52.82,172.28,172.28,0,0,1,11-13.72A59.78,59.78,0,0,1,120,146.65Z" class="cls-2"/><path d="M360.25,394.8a17.5,17.5,0,1,0,17.5,17.5A17.5,17.5,0,0,0,360.25,394.8Zm0,30a12.5,12.5,0,1,1,12.5-12.5A12.49,12.49,0,0,1,360.25,424.8Z" class="cls-5"/><path d="M54.1,369.49A17.5,17.5,0,1,0,71.6,387,17.5,17.5,0,0,0,54.1,369.49Zm0,30A12.5,12.5,0,1,1,66.6,387,12.49,12.49,0,0,1,54.1,399.49Z" class="cls-5"/><path d="M365.75,0A28.75,28.75,0,1,0,394.5,28.74,28.74,28.74,0,0,0,365.75,0Zm0,49.27a20.53,20.53,0,1,1,20.53-20.53A20.52,20.52,0,0,1,365.75,49.27Z" class="cls-5"/><path d="M116.91,44.8a11.64,11.64,0,1,0,11.64,11.63A11.63,11.63,0,0,0,116.91,44.8Zm0,19.94a8.31,8.31,0,1,1,8.31-8.31A8.3,8.3,0,0,1,116.91,64.74Z" class="cls-5"/><rect width="70" height="70" x="370.19" y="125.07" class="cls-6"/><path d="M346.11,321.81h63.7A65.18,65.18,0,0,1,475,387v0a0,0,0,0,1,0,0H411.3a65.18,65.18,0,0,1-65.18-65.18v0a0,0,0,0,1,0,0Z" class="cls-7"/><rect width="58.16" height="58.08" x="41.6" y="285.58" class="cls-3"/><rect width="29.08" height="29.04" x="440.19" y="96.03" class="cls-1"/><g class="cls-8"><g><path d="M337,88V336a19.58,19.58,0,0,1-19.57,19.58H206.31A19.58,19.58,0,0,1,186.74,336V72.48q4.75-1.71,9.64-3.13A175.46,175.46,0,0,1,326.47,82c1.29.66,2.56,1.34,3.82,2C332.56,85.34,334.8,86.64,337,88Z" class="cls-9"/><path d="M326.47,82v251.7A13.27,13.27,0,0,1,313.2,347H209.64a13.26,13.26,0,0,1-13.26-13.26V69.35A175.46,175.46,0,0,1,326.47,82Z" class="cls-9"/></g><path d="M318.6,355.82c-11.6,17.59-42.7,42.36-60.92,56.07q-6,.41-12,.41a174.2,174.2,0,0,1-96.29-28.85V274.14c4.46-11.8,9.76-24.5,15.17-36.84,7.95-18.11,16.13-35.44,22.19-48,5.73-11.84,9.57-19.44,9.57-19.44l.07,0c23.77,14.3,17.51,36.4,17.51,36.4a136.43,136.43,0,0,0-11.31,31c-3.67,15.8-4.91,35.18,3.51,52C224,325.09,228.56,343,228.56,343c.07,1.38.11,2.73.13,4,.07,3.07,0,5.93-.14,8.6-1.34,23.47-9.92,31.87-10.22,32.15,20.32-6.85,28.5-25.74,30.69-31.93Z" class="cls-9"/></g><g><rect width="150.28" height="309.4" x="169.93" y="31.73" class="cls-10" rx="19.57"/><rect width="130.09" height="292.09" x="179.57" y="40.45" class="cls-11" rx="13.26"/><rect width="75.21" height="11.92" x="207.85" y="35" class="cls-10" rx="5.96"/></g><rect width="101.12" height="27.92" x="192.44" y="285.08" class="cls-10" rx="13.96"/><rect width="58.01" height="4.82" x="183.43" y="209.51" class="cls-12"/><rect width="88.62" height="4.82" x="183.43" y="221.06" class="cls-12"/><path d="M301.79,341.36C285,366.89,227,407.55,227,407.55l-18.65,25.22H83.19l41.28-73.61L121,306.74c-4.82-26.29,58.47-151.33,58.47-151.33,23.85,14.3,17.58,36.44,17.58,36.44s-25.68,47.24-7.8,83,22.47,53.65,22.47,53.65c1.66,33.15-9.89,44.46-10.23,44.78,20.32-6.85,28.5-25.74,30.69-31.93Z" class="cls-13"/><g class="cls-14"><path d="M233.44,108.37v8.21h-8.21v-8.21h8.21m4-4H221.23v16.21h16.21V104.37Z"/></g><g class="cls-14"><path d="M264.23,108.37v8.21H256v-8.21h8.21m4-4H252v16.21h16.21V104.37Z"/></g><g class="cls-14"><path d="M264.23,139.16v8.2H256v-8.2h8.21m4-4H252v16.2h16.21v-16.2Z"/></g><g class="cls-14"><path d="M233.44,139.16v8.2h-8.21v-8.2h8.21m4-4H221.23v16.2h16.21v-16.2Z"/></g><g class="cls-14"><path d="M216.18,94.89h0a0,0,0,0,1,0,0v11.69a0,0,0,0,1,0,0h-4.36a0,0,0,0,1,0,0V99.25A4.36,4.36,0,0,1,216.18,94.89Z"/><path d="M215.49,91.22h4.36a0,0,0,0,1,0,0v11.69a0,0,0,0,1,0,0h0a4.36,4.36,0,0,1-4.36-4.36V91.22A0,0,0,0,1,215.49,91.22Z" transform="translate(314.74 -120.6) rotate(90)"/></g><g class="cls-14"><path d="M273.93,91.37h0a0,0,0,0,1,0,0v11.69a0,0,0,0,1,0,0h-4.36a0,0,0,0,1,0,0V95.72A4.36,4.36,0,0,1,273.93,91.37Z" transform="translate(368.97 -174.54) rotate(90)"/><path d="M273.25,95h4.36a0,0,0,0,1,0,0v11.69a0,0,0,0,1,0,0h0a4.36,4.36,0,0,1-4.36-4.36V95A0,0,0,0,1,273.25,95Z" transform="translate(550.85 201.77) rotate(180)"/></g><g class="cls-14"><path d="M211.85,149.06h4.36a0,0,0,0,1,0,0v11.69a0,0,0,0,1,0,0h0a4.36,4.36,0,0,1-4.36-4.36v-7.34A0,0,0,0,1,211.85,149.06Z"/><path d="M219.88,152.73h0a0,0,0,0,1,0,0v11.69a0,0,0,0,1,0,0h-4.36a0,0,0,0,1,0,0v-7.34A4.36,4.36,0,0,1,219.88,152.73Z" transform="translate(59.12 376.28) rotate(-90)"/></g><g class="cls-14"><path d="M269.52,152.77h4.36a0,0,0,0,1,0,0v11.69a0,0,0,0,1,0,0h0a4.36,4.36,0,0,1-4.36-4.36v-7.34A0,0,0,0,1,269.52,152.77Z" transform="translate(113.08 430.32) rotate(-90)"/><path d="M277.54,149.1h0a0,0,0,0,1,0,0V160.8a0,0,0,0,1,0,0h-4.36a0,0,0,0,1,0,0v-7.34A4.36,4.36,0,0,1,277.54,149.1Z" transform="translate(550.73 309.9) rotate(180)"/></g><rect width="4.59" height="46.99" x="242.44" y="104.37" class="cls-15"/><rect width="4.59" height="46.99" x="242.44" y="104.37" class="cls-15" transform="translate(116.86 372.6) rotate(-90)"/></svg>