<svg xmlns="http://www.w3.org/2000/svg" xmlns:xlink="http://www.w3.org/1999/xlink" id="Layer_1" x="0" y="0" version="1.1" viewBox="0 0 20 17" xml:space="preserve" style="enable-background:new 0 0 20 17"><style type="text/css">.st0{fill:#5b5b5b}.st1{fill:none}</style><g><path d="M1,17c-0.1,0-0.3,0-0.4-0.1c-0.4-0.2-0.7-0.7-0.6-1.1C1.3,9.4,5.2,5.3,11,4.2V1c0-0.4,0.2-0.8,0.6-0.9 C12-0.1,12.4,0,12.7,0.3l7,7c0.4,0.4,0.4,1,0,1.4l-7,7c-0.3,0.3-0.7,0.4-1.1,0.2C11.2,15.8,11,15.4,11,15v-3.1 c-4.2,0.2-7,1.7-9.2,4.7C1.6,16.9,1.3,17,1,17z M12,9.9c0.6,0,1,0.4,1,1v1.7L17.6,8L13,3.4V5c0,0.5-0.4,0.9-0.9,1 c-4.8,0.7-7.4,3.4-8.9,6.3C5.6,10.7,8.4,9.9,12,9.9z M12,5L12,5L12,5z" class="st0"/><path d="M19,0H1v18h18V0z" class="st1"/></g></svg>