<svg xmlns="http://www.w3.org/2000/svg" xmlns:xlink="http://www.w3.org/1999/xlink" id="Capa_1" x="0" y="0" version="1.1" viewBox="0 0 512 512" xml:space="preserve" style="enable-background:new 0 0 512 512"><circle style="fill:#ffca3c" cx="256" cy="256" r="256"/><path style="fill:#ff9500" d="M511.99,258.07c-1.11,139.74-114.18,252.81-253.92,253.92l-123.1-123.1	C98.9,356.01,76.26,308.65,76.26,256c0-99.27,80.47-179.74,179.74-179.74c52.65,0,100.01,22.64,132.89,58.71L511.99,258.07z"/><circle style="fill:#009aff" cx="256" cy="256" r="179.74"/><path style="fill:#0074c9" d="M435.741,256c0,99.272-80.469,179.741-179.741,179.741V76.259	C355.272,76.259,435.741,156.728,435.741,256z"/><rect style="fill:#fff" width="65.32" height="156.28" x="223.34" y="219.22"/><rect style="fill:#e0e0e2" width="32.66" height="156.29" x="256" y="219.21"/><circle style="fill:#fff" cx="256" cy="165.69" r="34.07"/><path style="fill:#e0e0e2" d="M290.07,165.69c0,18.82-15.25,34.07-34.07,34.07v-68.13C274.82,131.63,290.07,146.88,290.07,165.69z"/></svg>