<svg xmlns="http://www.w3.org/2000/svg" xmlns:xlink="http://www.w3.org/1999/xlink" id="Capa_1" x="0" y="0" version="1.1" viewBox="0 0 512 512" xml:space="preserve" style="enable-background:new 0 0 512 512"><path style="fill:#57555c" d="M451,75v392c0,24.899-20.099,45-45,45H106c-24.901,0-45-20.101-45-45V75c0-24.901,20.099-45,45-45	h300C430.901,30,451,50.099,451,75z"/><path style="fill:#3c3a41" d="M451,75v392c0,24.899-20.099,45-45,45H256V30h150C430.901,30,451,50.099,451,75z"/><path style="fill:#e5e5e5" d="M421,75v392c0,8.399-6.599,15-15,15H106c-8.401,0-15-6.601-15-15V75c0-8.401,6.599-15,15-15h300	C414.401,60,421,66.599,421,75z"/><path style="fill:#c8c6cd" d="M421,75v392c0,8.399-6.599,15-15,15H256V60h150C414.401,60,421,66.599,421,75z"/><path style="fill:#fd3c65" d="M256,166h-30v-30c0-8.401-6.599-15-15-15h-30c-8.401,0-15,6.599-15,15v30h-30	c-8.401,0-15,6.599-15,15v30c0,8.399,6.599,15,15,15h30v30c0,8.399,6.599,15,15,15h30c8.401,0,15-6.601,15-15v-30h30	c8.401,0,15-6.601,15-15v-30C271,172.599,264.401,166,256,166z"/><g><path style="fill:#ff8700" d="M376,151h-60c-8.291,0-15-6.709-15-15s6.709-15,15-15h60c8.291,0,15,6.709,15,15 S384.291,151,376,151z"/><path style="fill:#ff8700" d="M376,211h-60c-8.291,0-15-6.709-15-15s6.709-15,15-15h60c8.291,0,15,6.709,15,15 S384.291,211,376,211z"/><path style="fill:#ff8700" d="M376,271h-60c-8.291,0-15-6.709-15-15s6.709-15,15-15h60c8.291,0,15,6.709,15,15 C391,264.291,384.291,271,376,271z"/></g><g><path style="fill:#ff9f00" d="M391,316c0,8.399-6.599,15-15,15H136c-8.401,0-15-6.601-15-15c0-8.401,6.599-15,15-15h240 C384.401,301,391,307.599,391,316z"/><path style="fill:#ff9f00" d="M391,376c0,8.399-6.599,15-15,15H136c-8.401,0-15-6.601-15-15c0-8.401,6.599-15,15-15h240 C384.401,361,391,367.599,391,376z"/><path style="fill:#ff9f00" d="M391,437c0,8.399-6.599,15-15,15H136c-8.401,0-15-6.601-15-15c0-8.401,6.599-15,15-15h240 C384.401,422,391,428.599,391,437z"/></g><path style="fill:#fd003a" d="M256,226v-60c8.401,0,15,6.599,15,15v30C271,219.399,264.401,226,256,226z"/><g><path style="fill:#ff8700" d="M391,437c0,8.399-6.599,15-15,15H256v-30h120C384.401,422,391,428.599,391,437z"/><path style="fill:#ff8700" d="M391,376c0,8.399-6.599,15-15,15H256v-30h120C384.401,361,391,367.599,391,376z"/><path style="fill:#ff8700" d="M376,331H256v-30h120c8.401,0,15,6.599,15,15C391,324.399,384.401,331,376,331z"/></g><path style="fill:#b35c4b" d="M286,0h-60c-24.901,0-45,20.099-45,45v30c0,8.399,6.599,15,15,15h120c8.401,0,15-6.601,15-15V45	C331,20.099,310.901,0,286,0z"/><path style="fill:#a24f3d" d="M316,90h-60V0h30c24.901,0,45,20.099,45,45v30C331,83.399,324.401,90,316,90z"/></svg>